<svg width="62" height="53" viewBox="0 0 62 53" fill="none" xmlns="http://www.w3.org/2000/svg">
<path d="M8 31.7395C8 30.1111 6.20914 28.791 4 28.791C1.79086 28.791 0 30.1111 0 31.7395V50.0524C0 51.6808 1.79086 53.0009 4 53.0009C6.20914 53.0009 8 51.6808 8 50.0524V31.7395Z" fill="#415CE7"/>
<path d="M26 21.2312C26 19.6235 24.2091 18.3203 22 18.3203C19.7909 18.3203 18 19.6235 18 21.2312V50.0885C18 51.6961 19.7909 52.9993 22 52.9993C24.2091 52.9993 26 51.6961 26 50.0885V21.2312Z" fill="#415CE7"/>
<path d="M44 2.96576C44 1.32781 42.2091 0 40 0C37.7909 0 36 1.32782 36 2.96576V50.0342C36 51.6722 37.7909 53 40 53C42.2091 53 44 51.6722 44 50.0342V2.96576Z" fill="#415CE7"/>
<path d="M62 26.5045C62 24.8754 60.2091 23.5547 58 23.5547C55.7909 23.5547 54 24.8754 54 26.5045V50.0493C54 51.6784 55.7909 52.9991 58 52.9991C60.2091 52.9991 62 51.6785 62 50.0493V26.5045Z" fill="#415CE7"/>
</svg>
