<svg width="29" height="19" viewBox="0 0 29 19" fill="none" xmlns="http://www.w3.org/2000/svg">
<path fill-rule="evenodd" clip-rule="evenodd" d="M0.13102 9.13723C0.13102 9.40668 0.238057 9.6651 0.428589 9.85563C0.619121 10.0462 0.877539 10.1532 1.14699 10.1532L25.1097 10.1532L18.7152 16.5457C18.5244 16.7365 18.4172 16.9952 18.4172 17.265C18.4172 17.5348 18.5244 17.7935 18.7152 17.9843C18.906 18.1751 19.1647 18.2823 19.4345 18.2823C19.7043 18.2823 19.963 18.1751 20.1538 17.9843L28.2816 9.85653C28.3762 9.76216 28.4513 9.65004 28.5025 9.52661C28.5537 9.40318 28.5801 9.27086 28.5801 9.13723C28.5801 9.00359 28.5537 8.87127 28.5025 8.74784C28.4513 8.62441 28.3762 8.51229 28.2816 8.41792L20.1538 0.290135C20.0594 0.195674 19.9472 0.120743 19.8238 0.0696216C19.7004 0.0184997 19.5681 -0.0078125 19.4345 -0.0078125C19.1647 -0.0078125 18.906 0.0993621 18.7152 0.290135C18.5244 0.480907 18.4172 0.73965 18.4172 1.00944C18.4172 1.27924 18.5244 1.53798 18.7152 1.72875L25.1097 8.12125L1.14699 8.12125C0.877539 8.12125 0.619121 8.22829 0.428589 8.41883C0.238057 8.60936 0.13102 8.86777 0.13102 9.13723Z" fill="white"/>
</svg>
